<svg width="63" height="63" viewBox="0 0 63 63" fill="none" xmlns="http://www.w3.org/2000/svg">
<path d="M44.2585 40.3557C44.3929 40.4002 44.524 40.4541 44.6507 40.5171L49.0709 42.7122C52.4554 44.3931 56.4377 41.9486 56.4377 38.19L56.4377 25.7516C56.4377 21.7804 52.0399 19.3594 48.6494 21.4641L44.7496 23.8851C44.5574 24.0044 44.3795 24.145 44.2192 24.3042" stroke="#705EBC" stroke-width="1.5"/>
<path d="M43.7412 40.1844C44.9144 35.0086 45.0256 29.6565 44.0749 24.4473M7.56655 40.5349L7.72837 41.254C8.70835 45.6094 12.0868 49.0381 16.4496 50.105C22.397 51.5594 28.6787 51.5427 34.626 50.0884C38.9341 49.0349 42.3573 45.6923 43.4412 41.419L43.5069 41.1602C45.1154 34.8192 45.1154 28.1808 43.5069 21.8398L43.4412 21.581C42.3573 17.3078 38.9341 13.9651 34.626 12.9116C28.6787 11.4573 22.397 11.4406 16.4496 12.895C12.0868 13.9619 8.70835 17.3906 7.72837 21.746L7.56655 22.4651C6.22782 28.415 6.22782 34.585 7.56655 40.5349Z" stroke="white" stroke-width="1.5"/>
</svg>
