<svg width="65" height="63" viewBox="0 0 65 63" fill="none" xmlns="http://www.w3.org/2000/svg">
<path d="M9 27L1 27" stroke="#705EBC" stroke-width="1.5" stroke-linecap="round"/>
<path d="M9 33L2 33" stroke="#705EBC" stroke-width="1.5" stroke-linecap="round"/>
<path d="M8 30H3" stroke="#705EBC" stroke-width="1.5" stroke-linecap="round"/>
<path d="M17.7729 30.75C18.1871 30.75 18.5229 30.4142 18.5229 30C18.5229 29.5858 18.1871 29.25 17.7729 29.25V30V30.75ZM15 30V30.75H17.7729V30V29.25H15V30Z" fill="#705EBC"/>
<path d="M50.0958 21.5895L20.8809 6.02858C13.8506 2.284 6.04835 9.38229 8.4407 17.3463L12.1701 29.7616C12.2266 29.9496 12.2265 30.15 12.1698 30.338L8.45915 42.6438C6.05907 50.6032 13.8502 57.7103 20.8843 53.9779L50.0837 38.4844C56.6332 35.0092 56.6403 25.0753 50.0958 21.5895Z" stroke="white" stroke-width="1.5"/>
</svg>
