<svg width="63" height="63" viewBox="0 0 63 63" fill="none" xmlns="http://www.w3.org/2000/svg">
<path d="M5.25 44.6796L5.25 34.2341L5.31398 33.2796C6.13735 20.9961 14.8889 10.7939 26.6855 8.36562C29.8633 7.71146 33.1367 7.71146 36.3145 8.36562C48.1111 10.7939 56.8627 20.9961 57.686 33.2796L57.75 34.2341V44.6796M40.9227 46.728C40.4784 44.3895 40.4784 41.9853 40.9227 39.6468C41.6367 35.888 44.3574 32.8604 47.9582 31.8176L48.722 31.5964C49.5159 31.3664 50.337 31.2498 51.1621 31.2498C54.8005 31.2498 57.75 34.2678 57.75 37.9907V48.3841C57.75 52.107 54.8005 55.125 51.1621 55.125C50.337 55.125 49.5159 55.0084 48.722 54.7785L47.9582 54.5573C44.3574 53.5144 41.6367 50.4868 40.9227 46.728ZM22.0773 46.728C22.5216 44.3895 22.5216 41.9853 22.0773 39.6468C21.3632 35.888 18.6425 32.8604 15.0418 31.8175L14.278 31.5964C13.4841 31.3664 12.663 31.2498 11.8379 31.2498C8.19951 31.2498 5.25 34.2678 5.25002 37.9907L5.25001 48.3841C5.24999 52.107 8.19951 55.125 11.8379 55.125C12.663 55.125 13.4841 55.0084 14.278 54.7785L15.0418 54.5573C18.6425 53.5144 21.3632 50.4868 22.0773 46.728Z" stroke="white" stroke-width="1.5"/>
<path d="M57.75 48.3843C57.75 52.1072 54.8005 55.1252 51.1621 55.1252C50.337 55.1252 49.5158 55.0086 48.722 54.7786L47.9582 54.5574C44.3574 53.5146 41.6367 50.487 40.9227 46.7282C40.4784 44.3897 40.4784 41.9855 40.9227 39.6469C41.6367 35.8882 44.3574 32.8606 47.9582 31.8177L48.722 31.5965C49.5158 31.3666 50.337 31.25 51.1621 31.25C54.8005 31.25 57.75 34.268 57.75 37.9909V48.3843Z" stroke="#705EBC" stroke-width="1.5"/>
<path d="M5.25001 48.3843C5.24999 52.1072 8.19951 55.1252 11.8379 55.1252C12.663 55.1252 13.4841 55.0086 14.278 54.7787L15.0418 54.5574C18.6425 53.5146 21.3632 50.487 22.0773 46.7282C22.5216 44.3897 22.5216 41.9855 22.0773 39.6469C21.3632 35.8882 18.6425 32.8606 15.0418 31.8177L14.278 31.5965C13.4841 31.3666 12.663 31.25 11.8379 31.25C8.19951 31.25 5.25 34.268 5.25002 37.9909L5.25001 48.3843Z" stroke="#705EBC" stroke-width="1.5"/>
</svg>
